<svg width="28.000000" height="22.000000" viewBox="0 0 28 22" fill="none" xmlns="http://www.w3.org/2000/svg" xmlns:xlink="http://www.w3.org/1999/xlink">
	<desc>
			Created with Pixso.
	</desc>
	<defs/>
	<path id="Rectangle 98" d="M1.2 0L26.35 0C27.01 0 27.55 0.53 27.55 1.19C27.55 1.86 27.01 2.4 26.35 2.4L1.2 2.4C0.53 2.4 0 1.86 0 1.19C0 0.53 0.53 0 1.2 0Z" fill="#FFFFFF" fill-opacity="1.000000" fill-rule="nonzero"/>
	<path id="Rectangle 99" d="M1.2 9.59L26.35 9.59C27.01 9.59 27.55 10.13 27.55 10.79C27.55 11.46 27.01 12 26.35 12L1.2 12C0.53 12 0 11.46 0 10.79C0 10.13 0.53 9.59 1.2 9.59Z" fill="#FFFFFF" fill-opacity="1.000000" fill-rule="nonzero"/>
	<path id="Rectangle 100" d="M1.2 19.2L26.35 19.2C27.01 19.2 27.55 19.73 27.55 20.4C27.55 21.06 27.01 21.6 26.35 21.6L1.2 21.6C0.53 21.6 0 21.06 0 20.4C0 19.73 0.53 19.2 1.2 19.2Z" fill="#FFFFFF" fill-opacity="1.000000" fill-rule="nonzero"/>
</svg>
