<svg width="100.000000" height="103.000000" viewBox="0 0 100 103" fill="none" xmlns="http://www.w3.org/2000/svg" xmlns:xlink="http://www.w3.org/1999/xlink">
	<desc>
			Created with Pixso.
	</desc>
	<defs/>
	<path id="Vector" d="M1.05 84.31L1.05 77.83L2.8 77.83L2.8 84.22C2.8 85.8 3.76 86.5 5.08 86.5C6.48 86.5 7.36 85.71 7.36 84.22L7.36 77.83L9.11 77.83L9.11 84.31C9.11 86.76 7.44 88.07 5.08 88.07C2.8 88.07 1.05 86.76 1.05 84.31Z" fill="#FFFFFF" fill-opacity="1.000000" fill-rule="nonzero"/>
	<path id="Vector" d="M17.09 83.78L17.09 87.9L15.51 87.9L15.51 83.87C15.51 83.08 15.16 82.56 14.37 82.56C13.32 82.56 12.79 83.26 12.79 84.22L12.79 87.9L11.21 87.9L11.21 81.24L12.35 81.24L12.7 82.3C13.14 81.6 13.84 81.07 14.89 81.07C16.3 81.07 17.09 82.03 17.09 83.78Z" fill="#FFFFFF" fill-opacity="1.000000" fill-rule="nonzero"/>
	<path id="Vector" d="M18.75 78.88C18.75 78.35 19.1 77.92 19.8 77.92C20.42 77.92 20.85 78.35 20.85 78.88C20.85 79.41 20.42 79.84 19.8 79.84C19.1 79.84 18.75 79.49 18.75 78.88ZM18.93 81.24L20.5 81.24L20.5 87.9L18.93 87.9L18.93 81.24Z" fill="#FFFFFF" fill-opacity="1.000000" fill-rule="nonzero"/>
	<path id="Vector" d="M22.96 85.88L22.96 82.65L21.82 82.56L21.82 81.24L22.96 81.24L23.04 79.14L24.53 79.14L24.53 81.24L26.55 81.24L26.55 82.65L24.53 82.65L24.53 85.71C24.53 86.32 24.8 86.59 25.24 86.59C25.59 86.59 25.94 86.5 26.38 86.24L26.9 87.46C26.29 87.81 25.67 88.07 24.89 88.07C23.75 88.07 22.96 87.37 22.96 85.88Z" fill="#FFFFFF" fill-opacity="1.000000" fill-rule="nonzero"/>
	<path id="Vector" d="M33.82 84.31C33.82 84.57 33.82 84.83 33.74 85.1L29 85.1C29.18 86.15 30.06 86.76 31.11 86.76C31.9 86.76 32.42 86.5 32.86 86.15L33.56 87.2C32.77 87.81 31.98 88.16 31.02 88.16C28.92 88.16 27.43 86.76 27.43 84.66C27.43 82.73 28.83 81.16 30.84 81.16C32.69 81.07 33.82 82.38 33.82 84.31ZM29.09 84.05L32.33 84.05C32.25 83 31.63 82.47 30.84 82.47C29.97 82.38 29.27 83 29.09 84.05Z" fill="#FFFFFF" fill-opacity="1.000000" fill-rule="nonzero"/>
	<path id="Vector" d="M41.89 77.22L41.89 87.9L40.75 87.9L40.49 86.94C39.96 87.64 39.17 88.07 38.12 88.07C36.19 88.07 34.96 86.67 34.96 84.57C34.96 82.56 36.28 81.16 38.12 81.16C39 81.16 39.78 81.51 40.31 82.12C40.31 81.51 40.22 80.98 40.22 80.19L40.22 77.22L41.89 77.22ZM40.31 84.57C40.31 83.35 39.52 82.56 38.38 82.56C37.24 82.56 36.45 83.35 36.45 84.57C36.45 85.8 37.24 86.67 38.38 86.67C39.61 86.67 40.31 85.8 40.31 84.57Z" fill="#FFFFFF" fill-opacity="1.000000" fill-rule="nonzero"/>
	<path id="Vector" d="M8.67 98.93C8.67 100.59 7.35 101.73 5.51 101.73L1.22 101.73L1.22 91.66L5.25 91.66C7 91.66 8.32 92.71 8.32 94.29C8.32 95.25 7.88 95.95 7.09 96.48C8.06 96.83 8.67 97.79 8.67 98.93ZM2.97 95.78L4.99 95.78C5.95 95.78 6.57 95.25 6.57 94.38C6.57 93.59 5.95 93.06 4.99 93.06L2.97 93.06L2.97 95.78ZM6.92 98.75C6.92 97.88 6.3 97.27 5.34 97.27L2.97 97.27L2.97 100.33L5.25 100.33C6.22 100.24 6.92 99.72 6.92 98.75Z" fill="#FFFFFF" fill-opacity="1.000000" fill-rule="nonzero"/>
	<path id="Vector" d="M14.81 95.25L14.37 96.65C14.11 96.57 13.84 96.48 13.49 96.48C12.53 96.48 11.91 97.09 11.91 98.14L11.91 101.73L10.34 101.73L10.34 95.08L11.39 95.08L11.74 96.04C12.09 95.34 12.79 94.9 13.67 94.9C14.11 94.9 14.46 95.08 14.81 95.25Z" fill="#FFFFFF" fill-opacity="1.000000" fill-rule="nonzero"/>
	<path id="Vector" d="M15.07 98.41C15.07 96.39 16.56 94.9 18.66 94.9C20.77 94.9 22.26 96.3 22.26 98.41C22.26 100.42 20.77 101.91 18.66 101.91C16.56 101.91 15.07 100.42 15.07 98.41ZM20.59 98.41C20.59 97.18 19.8 96.3 18.66 96.3C17.52 96.3 16.73 97.18 16.73 98.41C16.73 99.63 17.52 100.51 18.66 100.51C19.8 100.42 20.59 99.63 20.59 98.41Z" fill="#FFFFFF" fill-opacity="1.000000" fill-rule="nonzero"/>
	<path id="Vector" d="M29.53 101.64L29.53 101.73L27.69 101.73L25.32 98.93L25.32 101.73L23.66 101.73L23.66 91.05L25.24 91.05L25.24 97.7L27.43 95.08L29.27 95.08L29.27 95.17L26.64 98.32L29.53 101.64Z" fill="#FFFFFF" fill-opacity="1.000000" fill-rule="nonzero"/>
	<path id="Vector" d="M36.28 98.14C36.28 98.41 36.28 98.67 36.19 98.93L31.46 98.93C31.63 99.98 32.51 100.59 33.56 100.59C34.35 100.59 34.88 100.33 35.31 99.98L36.02 101.03C35.23 101.65 34.44 102 33.47 102C31.37 102 29.88 100.59 29.88 98.49C29.88 96.57 31.28 94.99 33.3 94.99C35.14 94.9 36.28 96.13 36.28 98.14ZM31.46 97.79L34.7 97.79C34.61 96.74 34 96.22 33.21 96.22C32.33 96.22 31.63 96.83 31.46 97.79Z" fill="#FFFFFF" fill-opacity="1.000000" fill-rule="nonzero"/>
	<path id="Vector" d="M42.15 95.25L41.71 96.65C41.45 96.57 41.19 96.48 40.84 96.48C39.87 96.48 39.26 97.09 39.26 98.14L39.26 101.73L37.68 101.73L37.68 95.08L38.82 95.08L39.17 96.04C39.52 95.34 40.22 94.9 41.1 94.9C41.54 94.9 41.89 95.08 42.15 95.25Z" fill="#FFFFFF" fill-opacity="1.000000" fill-rule="nonzero"/>
	<path id="Vector" d="M42.59 101.12L43.2 99.98C43.73 100.33 44.43 100.51 45.04 100.51C45.66 100.51 46.01 100.24 46.01 99.81C46.01 99.28 45.39 99.11 44.69 98.84C43.64 98.41 42.85 97.88 42.85 96.83C42.85 95.6 43.9 94.99 45.22 94.99C46.01 94.99 46.71 95.17 47.41 95.6L46.88 96.65C46.36 96.39 45.83 96.3 45.39 96.3C44.87 96.3 44.43 96.48 44.43 96.83C44.43 97.27 44.96 97.53 45.66 97.79C46.8 98.23 47.67 98.76 47.67 99.89C47.67 101.12 46.71 101.91 45.22 101.91C44.25 101.82 43.38 101.65 42.59 101.12Z" fill="#FFFFFF" fill-opacity="1.000000" fill-rule="nonzero"/>
	<path id="Vector" d="M31.55 62.86L15.86 47.19L15.68 47.19L15.77 0L0 15.75L0.08 47.01L0.26 47.19L0.08 47.19L15.86 62.95L31.63 62.95L31.55 62.95L47.23 47.19L47.23 16.02L31.55 0.35L31.55 62.86Z" fill="#FFFFFF" fill-opacity="1.000000" fill-rule="nonzero"/>
	<path id="Vector" d="M0 0L0 7.87L7.88 0L0 0Z" fill="#FFFFFF" fill-opacity="1.000000" fill-rule="nonzero"/>
	<path id="Vector" d="M47.23 0L39.35 0L47.23 7.87L47.23 0Z" fill="#FFFFFF" fill-opacity="1.000000" fill-rule="nonzero"/>
	<path id="Vector" d="M68.36 84.4L68.36 37.21L52.67 52.96L52.76 84.22L52.93 84.4L52.76 84.4L68.44 100.16L84.22 100.16L68.44 84.4L68.36 84.4Z" fill="#FFFFFF" fill-opacity="1.000000" fill-rule="nonzero"/>
	<path id="Vector" d="M84.22 37.21L68.44 37.21L84.22 52.96L68.44 68.64L84.22 68.64L100 52.96L84.22 37.21Z" fill="#FFFFFF" fill-opacity="1.000000" fill-rule="nonzero"/>
	<path id="Vector" d="M84.22 100.16L100 84.4L84.22 68.64L84.22 100.16Z" fill="#FFFFFF" fill-opacity="1.000000" fill-rule="nonzero"/>
	<path id="Vector" d="M52.76 37.21L52.76 45.08L60.64 37.21L52.76 37.21Z" fill="#FFFFFF" fill-opacity="1.000000" fill-rule="nonzero"/>
</svg>
