<svg width="18.000000" height="20.000000" viewBox="0 0 18 20" fill="none" xmlns="http://www.w3.org/2000/svg" xmlns:xlink="http://www.w3.org/1999/xlink">
	<desc>
			Created with Pixso.
	</desc>
	<defs/>
	<path id="Vector" d="M2.63 -0.5C2.38 -0.66 2.1 -0.75 1.8 -0.76C1.51 -0.78 1.22 -0.72 0.96 -0.59L9.95 8.65L12.89 5.63L2.63 -0.5ZM0.13 0.27C0.02 0.52 -0.04 0.8 -0.04 1.08L-0.04 17.97C-0.04 18.25 0.02 18.52 0.14 18.77L9.12 9.5L0.13 0.27ZM9.95 10.36L0.98 19.61C1.21 19.72 1.46 19.77 1.72 19.77C2.04 19.77 2.36 19.69 2.63 19.52L12.89 13.38L9.95 10.36ZM16.78 7.96L13.94 6.24L10.78 9.5L13.94 12.77L16.8 11.06C17.06 10.9 17.27 10.67 17.42 10.4C17.57 10.13 17.64 9.83 17.64 9.52C17.64 9.21 17.57 8.91 17.42 8.64C17.27 8.37 17.06 8.14 16.8 7.98L16.78 7.96Z" fill="#294570" fill-opacity="1.000000" fill-rule="nonzero"/>
</svg>
