<svg width="17.000000" height="22.000000" viewBox="0 0 17 22" fill="none" xmlns="http://www.w3.org/2000/svg" xmlns:xlink="http://www.w3.org/1999/xlink">
	<desc>
			Created with Pixso.
	</desc>
	<defs/>
	<path id="Vector" d="M15.8 15.25C15.48 15.12 15.18 14.93 14.93 14.69C14.19 14.03 13.71 13.12 13.58 12.12C13.52 11.63 13.54 11.13 13.64 10.65C13.78 10.01 14.1 9.43 14.55 8.96C14.84 8.66 15.14 8.37 15.42 8.07C15.51 7.98 15.57 7.87 15.58 7.75C15.59 7.62 15.55 7.5 15.48 7.4C15.16 6.98 14.79 6.6 14.37 6.27C13.84 5.86 13.23 5.57 12.58 5.41C12.12 5.29 11.64 5.25 11.16 5.29C10.37 5.38 9.59 5.58 8.84 5.86C8.26 6.08 7.63 6.11 7.03 5.94C6.32 5.7 5.58 5.53 4.84 5.43C4 5.31 3.15 5.43 2.37 5.79C1.6 6.14 0.93 6.71 0.46 7.44C0.05 8.03 -0.26 8.68 -0.47 9.37C-0.67 10.05 -0.79 10.75 -0.82 11.46C-0.86 12.39 -0.78 13.32 -0.58 14.23C-0.45 14.83 -0.27 15.42 -0.05 15.99C0.43 17.36 1.13 18.63 2.02 19.76C2.49 20.38 3.09 20.87 3.77 21.21C4.21 21.41 4.69 21.48 5.16 21.41C5.66 21.31 6.15 21.16 6.62 20.96C6.91 20.84 7.22 20.74 7.54 20.68C8.03 20.62 8.54 20.67 9.01 20.84C9.52 21 10.01 21.19 10.52 21.33C10.88 21.43 11.25 21.46 11.62 21.41C11.99 21.36 12.35 21.22 12.66 21.02C13.46 20.47 14.13 19.76 14.64 18.92C15.26 18 15.74 17 16.08 15.94C16.11 15.88 16.13 15.81 16.13 15.74C16.13 15.67 16.12 15.6 16.09 15.53C16.07 15.47 16.03 15.41 15.98 15.36C15.93 15.31 15.87 15.27 15.8 15.25Z" fill="#294570" fill-opacity="1.000000" fill-rule="nonzero"/>
	<path id="Vector" d="M7.6 4.92L7.87 4.89C8.48 4.87 9.07 4.68 9.57 4.34C9.96 4.06 10.3 3.73 10.6 3.36C10.98 2.91 11.28 2.39 11.48 1.83C11.6 1.42 11.67 1 11.7 0.57C11.72 0.31 11.72 0.07 11.74 -0.19C11.76 -0.28 11.75 -0.37 11.72 -0.46C11.69 -0.55 11.64 -0.63 11.57 -0.69C11.51 -0.75 11.43 -0.79 11.34 -0.81C11.25 -0.83 11.16 -0.83 11.07 -0.8C10.64 -0.69 10.22 -0.54 9.82 -0.35C9.2 -0.08 8.65 0.34 8.21 0.86C7.47 1.83 7.06 3.01 7.03 4.24L7.03 4.44C7.03 4.51 7.04 4.59 7.07 4.65C7.1 4.72 7.14 4.78 7.2 4.83C7.25 4.87 7.32 4.9 7.39 4.92C7.46 4.94 7.53 4.94 7.6 4.92Z" fill="#294570" fill-opacity="1.000000" fill-rule="nonzero"/>
</svg>
