<svg width="33.000000" height="35.000000" viewBox="0 0 33 35" fill="none" xmlns="http://www.w3.org/2000/svg" xmlns:xlink="http://www.w3.org/1999/xlink">
	<desc>
			Created with Pixso.
	</desc>
	<defs/>
	<path id="Vector" d="M11.94 16.77L15.29 20.13C15.49 20.33 15.81 20.32 16.01 20.12L21.59 14.29M15.26 1.45C15.78 0.81 16.9 0.85 17.4 1.5C19.33 4 23.41 6.84 30.05 5.86C30.63 5.77 31.18 6.15 31.22 6.73C31.81 14.09 29.68 28.06 16.73 32.98C16.5 33.07 16.25 33.07 16.03 32.98C10.28 30.59 -0.05 22.32 1.08 6.83C1.13 6.22 1.72 5.81 2.32 5.91C5.75 6.46 11.56 6.08 15.26 1.45Z" stroke="#A0A0A0" stroke-opacity="1.000000" stroke-width="2.000000" stroke-linecap="round"/>
</svg>
