<svg width="32.000000" height="24.000000" viewBox="0 0 32 24" fill="none" xmlns="http://www.w3.org/2000/svg" xmlns:xlink="http://www.w3.org/1999/xlink">
	<desc>
			Created with Pixso.
	</desc>
	<defs/>
	<path id="Vector" d="M10.07 1.19C10.22 0.49 10.83 0 11.54 0L19.77 0C20.48 0 21.09 0.49 21.23 1.19L22.74 8.48C22.94 9.41 22.23 10.28 21.28 10.28L10.03 10.28C9.08 10.28 8.37 9.41 8.56 8.48L10.07 1.19ZM20.07 13.71C19.36 13.71 18.75 14.21 18.6 14.9L17.09 22.19C16.9 23.12 17.61 24 18.56 24L29.81 24C30.76 24 31.47 23.12 31.28 22.19L29.77 14.9C29.62 14.21 29.01 13.71 28.3 13.71L20.07 13.71ZM1.54 14.9C1.68 14.21 2.3 13.71 3.01 13.71L11.23 13.71C11.94 13.71 12.56 14.21 12.7 14.9L14.21 22.19C14.4 23.12 13.69 24 12.74 24L1.5 24C0.54 24 -0.17 23.12 0.03 22.19L1.54 14.9Z" fill="#C4C4C4" fill-opacity="0" fill-rule="evenodd"/>
	<path id="Vector" d="M10.07 1.19C10.22 0.49 10.83 0 11.54 0L19.77 0C20.48 0 21.09 0.49 21.23 1.19L22.74 8.48C22.94 9.41 22.23 10.28 21.28 10.28L10.03 10.28C9.08 10.28 8.37 9.41 8.56 8.48L10.07 1.19ZM11.95 2L10.64 8.28L20.66 8.28L19.36 2L11.95 2ZM18.6 14.9C18.75 14.21 19.36 13.71 20.07 13.71L28.3 13.71C29.01 13.71 29.62 14.21 29.77 14.9L31.28 22.19C31.47 23.12 30.76 24 29.81 24L18.56 24C17.61 24 16.9 23.12 17.09 22.19L18.6 14.9ZM3.01 13.71C2.3 13.71 1.68 14.21 1.54 14.9L0.03 22.19C-0.17 23.12 0.54 24 1.5 24L12.74 24C13.69 24 14.4 23.12 14.21 22.19L12.7 14.9C12.56 14.21 11.94 13.71 11.23 13.71L3.01 13.71ZM20.48 15.71L19.18 22L29.2 22L27.89 15.71L20.48 15.71ZM3.41 15.71L2.11 22L12.13 22L10.82 15.71L3.41 15.71Z" fill="#A0A0A0" fill-opacity="1.000000" fill-rule="evenodd"/>
</svg>
