<svg width="32.000000" height="35.000000" viewBox="0 0 32 35" fill="none" xmlns="http://www.w3.org/2000/svg" xmlns:xlink="http://www.w3.org/1999/xlink">
	<desc>
			Created with Pixso.
	</desc>
	<defs/>
	<path id="Vector" d="M28.29 13.32L27.54 13.32L27.54 11.88C27.54 5.32 22.28 0 15.83 0C9.37 0 4.11 5.32 4.11 11.88L4.11 13.32L3.7 13.32C1.66 13.32 0 15 0 17.08L0 23.02C0 25.09 1.66 26.77 3.7 26.77L6.29 26.77C7.21 26.77 7.97 26.01 7.97 25.07L7.97 15.03C7.97 14.08 7.21 13.32 6.29 13.32L6.14 13.32L6.14 11.88C6.14 6.46 10.48 2.05 15.83 2.05C21.17 2.05 25.52 6.46 25.52 11.88L25.52 13.33C24.68 13.42 24.02 14.15 24.02 15.03L24.02 25.07C24.02 25.94 24.68 26.67 25.52 26.76L25.52 27.12C25.52 29.2 23.85 30.89 21.8 30.89L19.37 30.89C18.88 29.69 17.55 28.83 15.99 28.83C14.02 28.83 12.42 30.22 12.42 31.91C12.42 33.61 14.02 35 15.99 35C17.55 35 18.88 34.14 19.37 32.94L21.8 32.94C24.97 32.94 27.54 30.33 27.54 27.12L27.54 26.77L28.29 26.77C30.33 26.77 32 25.09 32 23.02L32 17.08C32 15 30.33 13.32 28.29 13.32ZM5.95 24.72L3.7 24.72C2.77 24.72 2.02 23.96 2.02 23.02L2.02 17.08C2.02 16.13 2.77 15.37 3.7 15.37L5.95 15.37L5.95 24.72ZM15.99 32.94C15.08 32.94 14.44 32.4 14.44 31.91C14.44 31.43 15.08 30.89 15.99 30.89C16.91 30.89 17.55 31.43 17.55 31.91C17.55 32.4 16.91 32.94 15.99 32.94ZM29.97 23.02C29.97 23.96 29.22 24.72 28.29 24.72L26.04 24.72L26.04 15.37L28.29 15.37C29.22 15.37 29.97 16.13 29.97 17.08L29.97 23.02Z" fill="#A0A0A0" fill-opacity="1.000000" fill-rule="nonzero"/>
</svg>
