<svg width="26.000000" height="31.000000" viewBox="0 0 26 31" fill="none" xmlns="http://www.w3.org/2000/svg" xmlns:xlink="http://www.w3.org/1999/xlink">
	<desc>
			Created with Pixso.
	</desc>
	<defs/>
	<path id="basic / stopwatch" d="M12.75 30.29C5.7 30.29 0 24.58 0 17.53C0 10.49 5.7 4.78 12.75 4.78C19.79 4.78 25.5 10.49 25.5 17.53C25.49 24.57 19.79 30.28 12.75 30.29ZM12.75 7.97C7.47 7.97 3.18 12.25 3.18 17.53C3.18 22.81 7.47 27.1 12.75 27.1C18.03 27.1 22.31 22.81 22.31 17.53C22.31 12.25 18.03 7.97 12.75 7.97ZM14.34 17.53C14.34 18.41 13.63 19.13 12.75 19.13C11.87 19.13 11.15 18.41 11.15 17.53L11.15 12.75C11.15 11.87 11.87 11.15 12.75 11.15C13.63 11.15 14.34 11.87 14.34 12.75L14.34 17.53ZM24.37 9.09L22.31 7.03C21.69 6.41 21.69 5.4 22.31 4.78C22.94 4.16 23.95 4.16 24.57 4.78L25.22 5.42C26 6.21 26 7.47 25.22 8.25L24.38 9.09L24.37 9.09ZM15.94 3.18L9.56 3.18C8.68 3.18 7.97 2.47 7.97 1.59C7.97 0.71 8.68 0 9.56 0L15.94 0C16.82 0 17.53 0.71 17.53 1.59C17.53 2.47 16.82 3.18 15.94 3.18Z" fill="#A0A0A0" fill-opacity="1.000000" fill-rule="nonzero"/>
</svg>
