<svg width="84.000000" height="100.000000" viewBox="0 0 84 100" fill="none" xmlns="http://www.w3.org/2000/svg" xmlns:xlink="http://www.w3.org/1999/xlink">
	<desc>
			Created with Pixso.
	</desc>
	<defs>
		<clipPath id="clip1_1179">
			<rect id="Frame" width="84.000000" height="100.000000" fill="white" fill-opacity="0"/>
		</clipPath>
	</defs>
	<rect id="Frame" width="84.000000" height="100.000000" fill="#FFFFFF" fill-opacity="0"/>
	<g clip-path="url(#clip1_1179)">
		<path id="Vector" d="M0 0L84 0L84 83.34L0 83.34L0 0Z" fill="#FFFFFF" fill-opacity="1.000000" fill-rule="evenodd"/>
		<path id="Vector" d="M0 0L84 83.34L84 0L0 0Z" fill="#1DAAB3" fill-opacity="1.000000" fill-rule="nonzero"/>
		<path id="Vector" d="M0 83.34L16.8 99.99L67.19 99.99L84 83.34L0 83.34Z" fill="#FFFFFF" fill-opacity="1.000000" fill-rule="nonzero"/>
		<path id="Vector" d="M10.57 68.83L10.57 64.79L11.65 64.79L11.65 68.76C11.65 69.71 12.22 70.19 13.09 70.19C13.94 70.19 14.51 69.73 14.51 68.76L14.51 64.81L15.62 64.81L15.62 68.85C15.62 70.34 14.56 71.18 13.09 71.18C11.63 71.16 10.57 70.34 10.57 68.83Z" fill="#294570" fill-opacity="1.000000" fill-rule="nonzero"/>
		<path id="Vector" d="M20.53 68.49L20.53 71.06L19.52 71.06L19.52 68.6C19.52 68.09 19.3 67.76 18.82 67.76C18.18 67.76 17.8 68.2 17.8 68.81L17.8 71.06L16.78 71.06L16.78 66.96L17.46 66.96L17.67 67.61C17.95 67.19 18.39 66.85 19.05 66.85C20.02 66.85 20.53 67.44 20.53 68.49Z" fill="#294570" fill-opacity="1.000000" fill-rule="nonzero"/>
		<path id="Vector" d="M21.57 65.51C21.57 65.17 21.8 64.92 22.21 64.92C22.59 64.92 22.84 65.19 22.84 65.53C22.84 65.86 22.59 66.12 22.21 66.12C21.8 66.09 21.57 65.84 21.57 65.51ZM21.68 66.96L22.7 66.96L22.7 71.06L21.68 71.06L21.68 66.96Z" fill="#294570" fill-opacity="1.000000" fill-rule="nonzero"/>
		<path id="Vector" d="M24.18 69.8L24.18 67.8L23.46 67.73L23.46 66.94L24.18 66.94L24.2 65.63L25.17 65.63L25.17 66.94L26.45 66.94L26.45 67.8L25.17 67.8L25.17 69.69C25.17 70.09 25.37 70.22 25.62 70.22C25.85 70.22 26.09 70.15 26.32 70.01L26.64 70.76C26.26 70.99 25.85 71.14 25.39 71.14C24.67 71.14 24.18 70.72 24.18 69.8Z" fill="#294570" fill-opacity="1.000000" fill-rule="nonzero"/>
		<path id="Vector" d="M30.98 68.85C30.98 69 30.96 69.16 30.94 69.33L27.97 69.33C28.1 69.98 28.63 70.34 29.29 70.34C29.75 70.34 30.09 70.19 30.39 69.96L30.81 70.62C30.35 70.99 29.84 71.18 29.2 71.18C27.89 71.18 26.98 70.3 26.98 69.02C26.98 67.82 27.85 66.87 29.1 66.87C30.26 66.85 30.98 67.63 30.98 68.85ZM27.99 68.66L30.03 68.66C30.01 68.01 29.6 67.67 29.08 67.67C28.55 67.65 28.1 68.01 27.99 68.66Z" fill="#294570" fill-opacity="1.000000" fill-rule="nonzero"/>
		<path id="Vector" d="M35.98 64.43L35.98 71.04L35.29 71.04L35.12 70.43C34.78 70.87 34.27 71.14 33.63 71.14C32.44 71.14 31.64 70.26 31.64 68.95C31.64 67.73 32.47 66.83 33.63 66.83C34.18 66.83 34.69 67.04 35.01 67.42C34.99 67.04 34.99 66.7 34.99 66.24L34.99 64.41L35.98 64.41L35.98 64.43ZM35.03 69C35.03 68.24 34.56 67.73 33.84 67.73C33.14 67.73 32.68 68.24 32.68 69C32.68 69.75 33.14 70.28 33.84 70.28C34.56 70.28 35.03 69.75 35.03 69Z" fill="#294570" fill-opacity="1.000000" fill-rule="nonzero"/>
		<path id="Vector" d="M15.32 77.87C15.32 78.9 14.51 79.6 13.35 79.6L10.66 79.6L10.66 73.35L13.16 73.35C14.26 73.35 15.06 74 15.06 74.99C15.06 75.58 14.77 76.04 14.32 76.34C14.92 76.59 15.32 77.16 15.32 77.87ZM11.74 75.94L12.99 75.94C13.6 75.94 13.94 75.62 13.94 75.05C13.94 74.55 13.54 74.23 12.97 74.23L11.72 74.23L11.72 75.94L11.74 75.94ZM14.22 77.77C14.22 77.2 13.81 76.82 13.2 76.82L11.74 76.82L11.74 78.71L13.16 78.71C13.79 78.71 14.22 78.35 14.22 77.77Z" fill="#294570" fill-opacity="1.000000" fill-rule="nonzero"/>
		<path id="Vector" d="M19.09 75.58L18.84 76.42C18.69 76.36 18.52 76.34 18.31 76.34C17.71 76.34 17.33 76.71 17.33 77.37L17.33 79.6L16.32 79.6L16.32 75.49L16.99 75.49L17.18 76.1C17.42 75.64 17.84 75.41 18.37 75.41C18.67 75.41 18.9 75.47 19.09 75.58Z" fill="#294570" fill-opacity="1.000000" fill-rule="nonzero"/>
		<path id="Vector" d="M19.3 77.56C19.3 76.29 20.22 75.39 21.51 75.39C22.8 75.39 23.73 76.27 23.73 77.56C23.73 78.82 22.8 79.72 21.51 79.72C20.22 79.72 19.3 78.82 19.3 77.56ZM22.7 77.56C22.7 76.8 22.21 76.27 21.51 76.27C20.81 76.27 20.32 76.8 20.32 77.56C20.32 78.31 20.81 78.84 21.51 78.84C22.23 78.84 22.7 78.31 22.7 77.56Z" fill="#294570" fill-opacity="1.000000" fill-rule="nonzero"/>
		<path id="Vector" d="M28.31 79.55L28.31 79.62L27.15 79.62L25.66 77.87L25.66 79.62L24.65 79.62L24.65 73.01L25.66 73.01L25.66 77.16L27.04 75.54L28.19 75.54L28.19 75.58L26.55 77.51L28.31 79.55Z" fill="#294570" fill-opacity="1.000000" fill-rule="nonzero"/>
		<path id="Vector" d="M32.49 77.41C32.49 77.56 32.47 77.72 32.45 77.89L29.48 77.89C29.61 78.54 30.14 78.9 30.79 78.9C31.26 78.9 31.6 78.75 31.89 78.52L32.32 79.17C31.85 79.55 31.34 79.74 30.71 79.74C29.39 79.74 28.48 78.86 28.48 77.56C28.48 76.36 29.35 75.41 30.6 75.41C31.79 75.39 32.49 76.17 32.49 77.41ZM29.5 77.2L31.53 77.2C31.51 76.55 31.11 76.21 30.58 76.21C30.05 76.21 29.63 76.57 29.5 77.2Z" fill="#294570" fill-opacity="1.000000" fill-rule="nonzero"/>
		<path id="Vector" d="M36.18 75.58L35.92 76.42C35.77 76.36 35.6 76.34 35.39 76.34C34.8 76.34 34.42 76.71 34.42 77.37L34.42 79.6L33.4 79.6L33.4 75.49L34.08 75.49L34.27 76.1C34.5 75.64 34.93 75.41 35.46 75.41C35.75 75.41 35.99 75.47 36.18 75.58Z" fill="#294570" fill-opacity="1.000000" fill-rule="nonzero"/>
		<path id="Vector" d="M36.45 79.24L36.85 78.52C37.21 78.73 37.6 78.86 37.98 78.86C38.34 78.86 38.59 78.69 38.59 78.44C38.59 78.14 38.21 78 37.79 77.83C37.13 77.58 36.62 77.24 36.62 76.57C36.62 75.81 37.3 75.41 38.08 75.41C38.55 75.41 39 75.52 39.44 75.77L39.08 76.44C38.78 76.29 38.44 76.21 38.17 76.21C37.85 76.21 37.58 76.29 37.58 76.57C37.58 76.84 37.87 76.99 38.32 77.16C39.04 77.43 39.57 77.77 39.57 78.44C39.57 79.2 38.95 79.68 38.04 79.68C37.45 79.7 36.94 79.55 36.45 79.24Z" fill="#294570" fill-opacity="1.000000" fill-rule="nonzero"/>
		<path id="Vector" d="M29.56 55.58L19.77 45.86L19.69 45.86L19.71 16.67L9.89 26.39L9.96 45.78L10.08 45.86L9.96 45.86L19.77 55.6L29.59 55.6L29.56 55.6L39.31 45.86L39.36 26.6L29.54 16.86L29.56 55.58Z" fill="#294570" fill-opacity="1.000000" fill-rule="nonzero"/>
		<path id="Vector" d="M9.89 16.67L9.89 21.53L14.79 16.67L9.89 16.67Z" fill="#294570" fill-opacity="1.000000" fill-rule="nonzero"/>
		<path id="Vector" d="M39.31 16.67L34.42 16.67L39.31 21.53L39.31 16.67Z" fill="#294570" fill-opacity="1.000000" fill-rule="nonzero"/>
		<path id="Vector" d="M52.48 68.89L52.5 39.68L42.68 49.42L42.75 68.81L42.88 68.89L42.75 68.89L52.56 78.63L62.38 78.63L52.56 68.89L52.48 68.89Z" fill="#294570" fill-opacity="1.000000" fill-rule="nonzero"/>
		<path id="Vector" d="M62.37 39.68L52.56 39.68L62.37 49.42L52.56 59.15L62.37 59.15L72.19 49.42L62.37 39.68Z" fill="#294570" fill-opacity="1.000000" fill-rule="nonzero"/>
		<path id="Vector" d="M62.37 78.63L72.19 68.89L62.37 59.15L62.37 78.63Z" fill="#294570" fill-opacity="1.000000" fill-rule="nonzero"/>
		<path id="Vector" d="M42.75 39.68L42.75 44.56L47.67 39.68L42.75 39.68Z" fill="#294570" fill-opacity="1.000000" fill-rule="nonzero"/>
	</g>
</svg>
