<svg width="23.000000" height="22.000000" viewBox="0 0 23 22" fill="none" xmlns="http://www.w3.org/2000/svg" xmlns:xlink="http://www.w3.org/1999/xlink">
	<desc>
			Created with Pixso.
	</desc>
	<defs/>
	<path id="Vector" d="M-0.5 11.41L-0.5 18.17L8.9 19.55L8.9 11.41L-0.5 11.41Z" fill="#294570" fill-opacity="1.000000" fill-rule="nonzero"/>
	<path id="Vector" d="M-0.5 18.17L8.9 19.55L8.9 11.41L-0.5 11.41L-0.5 18.17Z" stroke="#C4C4C4" stroke-opacity="0" stroke-width="1.421079"/>
	<path id="Vector" d="M8.9 1.05L-0.5 2.43L-0.5 9.18L8.9 9.18L8.9 1.05Z" fill="#294570" fill-opacity="1.000000" fill-rule="nonzero"/>
	<path id="Vector" d="M-0.5 2.43L-0.5 9.18L8.9 9.18L8.9 1.05L-0.5 2.43Z" stroke="#C4C4C4" stroke-opacity="0" stroke-width="1.421079"/>
	<path id="Vector" d="M22.1 9.18L22.1 -0.99L11.08 0.62L11.08 9.18L22.1 9.18Z" fill="#294570" fill-opacity="1.000000" fill-rule="nonzero"/>
	<path id="Vector" d="M22.1 -0.99L11.08 0.62L11.08 9.18L22.1 9.18L22.1 -0.99Z" stroke="#C4C4C4" stroke-opacity="0" stroke-width="1.421079"/>
	<path id="Vector" d="M11.09 19.99L22.1 21.61L22.1 11.41L11.09 11.41L11.09 19.99Z" fill="#294570" fill-opacity="1.000000" fill-rule="nonzero"/>
	<path id="Vector" d="M22.1 21.61L22.1 11.41L11.09 11.41L11.09 19.99L22.1 21.61Z" stroke="#C4C4C4" stroke-opacity="0" stroke-width="1.421079"/>
</svg>
