<svg width="30.000000" height="22.000000" viewBox="0 0 30 22" fill="none" xmlns="http://www.w3.org/2000/svg" xmlns:xlink="http://www.w3.org/1999/xlink">
	<desc>
			Created with Pixso.
	</desc>
	<defs/>
	<path id="Vector" d="M26.28 10.41C26.28 10.29 26.28 10.17 26.28 10.05C26.27 7.12 24.11 4.75 21.45 4.75C20.64 4.75 19.86 4.98 19.15 5.41C18.21 1.05 14.25 -1.64 10.31 -0.6C7.02 0.26 4.68 3.49 4.66 7.23C4.66 7.27 4.66 7.32 4.66 7.37C1.19 8.23 -1 12.04 -0.22 15.87C0.44 19.12 3.05 21.43 6.07 21.44L24.49 21.44C27.34 21.44 29.65 18.89 29.66 15.74C29.66 13.36 28.32 11.23 26.3 10.4L26.28 10.41ZM10.35 17.15C10.35 17.53 10.06 17.85 9.71 17.85C9.36 17.85 9.07 17.53 9.07 17.15L9.07 13.6C9.07 13.22 9.36 12.9 9.71 12.9C10.06 12.9 10.35 13.22 10.35 13.6L10.35 17.15ZM13.16 17.15C13.16 17.53 12.87 17.85 12.52 17.85C12.17 17.85 11.88 17.53 11.88 17.15L11.88 11.1C11.88 10.71 12.17 10.4 12.52 10.4C12.87 10.4 13.16 10.71 13.16 11.1L13.16 17.15ZM15.96 17.11C15.96 17.5 15.68 17.82 15.33 17.82C14.97 17.82 14.69 17.5 14.69 17.11L14.69 15.6C14.69 15.21 14.97 14.9 15.33 14.9C15.68 14.9 15.96 15.21 15.96 15.6L15.96 17.11ZM18.77 17.04C18.77 17.43 18.48 17.74 18.13 17.74C17.78 17.74 17.49 17.43 17.49 17.04L17.49 8.99C17.49 8.6 17.78 8.29 18.13 8.29C18.48 8.29 18.77 8.6 18.77 8.99L18.77 17.04Z" fill="#294570" fill-opacity="1.000000" fill-rule="nonzero"/>
</svg>
