<svg width="24.000000" height="19.000000" viewBox="0 0 24 19" fill="none" xmlns="http://www.w3.org/2000/svg" xmlns:xlink="http://www.w3.org/1999/xlink">
	<desc>
			Created with Pixso.
	</desc>
	<defs/>
	<path id="Vector" d="M22.96 7.03C22.98 6.98 22.99 6.92 23 6.86L23 6.86C22.99 6.83 22.99 6.81 22.98 6.79C22.98 6.7 22.95 6.61 22.89 6.55C22.87 6.52 22.86 6.5 22.85 6.49L16.76 0.16C16.76 0.15 16.75 0.15 16.74 0.15C16.74 0.14 16.74 0.13 16.73 0.13C16.71 0.11 16.68 0.1 16.65 0.09C16.63 0.07 16.6 0.05 16.56 0.03C16.5 0.02 16.44 0.01 16.38 0L6.62 0C6.59 0 6.56 0 6.54 0.01C6.5 0.01 6.46 0.02 6.43 0.03C6.4 0.05 6.37 0.07 6.34 0.09C6.31 0.1 6.29 0.11 6.26 0.13C6.26 0.13 6.25 0.14 6.25 0.15C6.24 0.15 6.24 0.15 6.23 0.16L0.14 6.49C0.13 6.5 0.12 6.52 0.11 6.55C0.08 6.58 0.05 6.62 0.04 6.66C0.02 6.7 0.01 6.74 0.01 6.79C0 6.81 0 6.83 0 6.86L0 6.86C0 6.92 0.01 6.98 0.03 7.04C0.03 7.04 0.03 7.06 0.04 7.06C0.04 7.08 0.05 7.08 0.06 7.09C0.08 7.15 0.12 7.19 0.16 7.24L0.16 7.24L11.12 17.84C11.15 17.86 11.17 17.88 11.19 17.89C11.22 17.91 11.26 17.94 11.29 17.95L11.3 17.96C11.42 18.01 11.57 18.01 11.7 17.96L11.7 17.95C11.74 17.94 11.77 17.91 11.8 17.89C11.82 17.88 11.85 17.86 11.87 17.84L22.83 7.24L22.84 7.24C22.88 7.19 22.91 7.15 22.93 7.09C22.94 7.08 22.95 7.07 22.95 7.06C22.96 7.05 22.96 7.04 22.96 7.03ZM6.6 1.32L11.02 6.32L1.78 6.32L6.6 1.32ZM11.5 1.06L15.19 1.06L11.5 5.25L7.8 1.06L11.5 1.06ZM10.96 7.39L10.96 16.2L1.85 7.39L10.96 7.39ZM12.03 7.39L21.14 7.39L12.03 16.2L12.03 7.39ZM11.97 6.32L16.39 1.32L21.21 6.32L11.97 6.32Z" fill="#A0A0A0" fill-opacity="1.000000" fill-rule="nonzero"/>
	<path id="Vector" d="M23 6.86L23 6.86C22.99 6.83 22.99 6.81 22.98 6.79C22.98 6.7 22.95 6.61 22.89 6.55C22.87 6.52 22.86 6.5 22.85 6.49L16.76 0.16C16.76 0.15 16.75 0.15 16.74 0.15C16.74 0.14 16.74 0.13 16.73 0.13C16.71 0.11 16.68 0.1 16.65 0.09C16.63 0.07 16.6 0.05 16.56 0.03C16.5 0.02 16.44 0.01 16.38 0L6.62 0C6.59 0 6.56 0 6.54 0.01C6.5 0.01 6.46 0.02 6.43 0.03C6.4 0.05 6.37 0.07 6.34 0.09C6.31 0.1 6.29 0.11 6.26 0.13C6.26 0.13 6.25 0.14 6.25 0.15C6.24 0.15 6.24 0.15 6.23 0.16L0.14 6.49C0.13 6.5 0.12 6.52 0.11 6.55C0.08 6.58 0.05 6.62 0.04 6.66C0.02 6.7 0.01 6.74 0.01 6.79C0 6.81 0 6.83 0 6.86L0 6.86C0 6.92 0.01 6.98 0.03 7.04C0.03 7.04 0.03 7.06 0.04 7.06C0.04 7.08 0.05 7.08 0.06 7.09C0.08 7.15 0.12 7.19 0.16 7.24L0.16 7.24L11.12 17.84C11.15 17.86 11.17 17.88 11.19 17.89C11.22 17.91 11.26 17.94 11.29 17.95L11.3 17.96C11.42 18.01 11.57 18.01 11.7 17.96L11.7 17.95C11.74 17.94 11.77 17.91 11.8 17.89C11.82 17.88 11.85 17.86 11.87 17.84L22.83 7.24L22.84 7.24C22.88 7.19 22.91 7.15 22.93 7.09C22.94 7.08 22.95 7.07 22.95 7.06C22.96 7.05 22.96 7.04 22.96 7.03C22.98 6.98 22.99 6.92 23 6.86ZM11.02 6.32L1.78 6.32L6.6 1.32L11.02 6.32ZM15.19 1.06L11.5 5.25L7.8 1.06L11.5 1.06L15.19 1.06ZM10.96 16.2L1.85 7.39L10.96 7.39L10.96 16.2ZM21.14 7.39L12.03 16.2L12.03 7.39L21.14 7.39ZM16.39 1.32L21.21 6.32L11.97 6.32L16.39 1.32Z" stroke="#A0A0A0" stroke-opacity="1.000000" stroke-width="1.000000"/>
</svg>
